<svg viewBox="0 0 20 20" fill="none" xmlns="http://www.w3.org/2000/svg">
	<path d="M3.18182 0L2.89773 0.369318L0 4.23295V20H20V4.23295L17.1023 0.369318L16.8182 0H3.18182ZM4.09091 1.81818H9.09091V3.63636H2.72727L4.09091 1.81818ZM10.9091 1.81818H15.9091L17.2727 3.63636H10.9091V1.81818ZM1.81818 5.45455H18.1818V18.1818H1.81818V5.45455ZM7.10227 7.27273C6.60155 7.31891 6.23227 7.76636 6.27836 8.26709C6.32455 8.76773 6.772 9.13709 7.27273 9.09091H12.7273C13.054 9.09445 13.3594 8.924 13.5263 8.63991C13.6896 8.35582 13.6896 8.00782 13.5263 7.72373C13.3594 7.43964 13.054 7.26918 12.7273 7.27273H7.27273C7.24436 7.27273 7.21591 7.27273 7.18745 7.27273C7.15909 7.27273 7.13073 7.27273 7.10227 7.27273Z" />
</svg>