<svg viewBox="0 0 25 25" fill="none" xmlns="http://www.w3.org/2000/svg">
    <path
        d="M16.4641 12.0096L20.7391 7.73456V11.3096H22.7391V4.30956H15.7391V6.30956H19.3391L15.0391 10.5846L16.4641 12.0096ZM20.7391 20.3096C21.2891 20.3096 21.7599 20.1137 22.1516 19.7221C22.5432 19.3304 22.7391 18.8596 22.7391 18.3096V13.3096H20.7391V18.3096H12.7391V20.3096H20.7391ZM4.73907 13.3096V6.30956H13.7391V4.30956H4.73907C4.18907 4.30956 3.71824 4.50539 3.32657 4.89706C2.93491 5.28872 2.73907 5.75956 2.73907 6.30956V13.3096H4.73907ZM2.73907 15.3096V20.3096H10.7391V15.3096H2.73907Z" />
</svg>