<?xml version="1.0" encoding="utf-8"?>
<!-- Generator: Adobe Illustrator 26.5.0, SVG Export Plug-In . SVG Version: 6.00 Build 0)  -->
<svg version="1.1" id="Слой_1" xmlns="http://www.w3.org/2000/svg"
	xmlns:xlink="http://www.w3.org/1999/xlink" x="0px" y="0px"
	viewBox="0 0 54 54" style="enable-background:new 0 0 54 54;" xml:space="preserve">
<style type="text/css">
	<!-- .st0{fill:#FFFFFF;} -->
</style>
<path class="st0" d="M52.1,6.1c-0.9-0.9-2-1.4-3.3-1.4H37c0,0,0,0,0,0H5.2c-1.3,0-2.4,0.5-3.3,1.4C1,7.1,0.5,8.2,0.5,9.5v30.8
	c0,1.3,0.5,2.4,1.4,3.3c0.9,0.9,2,1.4,3.3,1.4h1.7v2.1c0,1.2,1,2.1,2.1,2.1s2.1-1,2.1-2.1V45h31.8v2.1c0,1.2,1,2.1,2.1,2.1
	s2.1-1,2.1-2.1V45h1.7c1.3,0,2.4-0.5,3.3-1.4c0.9-0.9,1.4-2,1.4-3.3V9.5C53.5,8.2,53,7.1,52.1,6.1z M37,12.6c0,3.5-2.8,6.4-6.4,6.4
	H5.2V9.5H37V12.6z"/>
</svg>