<svg viewBox="0 0 20 20" fill="none" xmlns="http://www.w3.org/2000/svg">
	<path d="M17.6417 2.70833C17.825 2.70833 17.9889 2.77777 18.1334 2.91666C18.2667 3.04999 18.3334 3.21111 18.3334 3.39999V16.6C18.3334 16.7889 18.2667 16.95 18.1334 17.0833C17.9889 17.2222 17.825 17.2917 17.6417 17.2917H6.52502C6.34169 17.2917 6.1778 17.2222 6.03335 17.0833C5.90002 16.95 5.83335 16.7889 5.83335 16.6V14.1667H2.35835C2.17502 14.1667 2.01113 14.1 1.86669 13.9667C1.73335 13.8222 1.66669 13.6583 1.66669 13.475V6.52499C1.66669 6.34166 1.73335 6.17777 1.86669 6.03333C2.01113 5.89999 2.17502 5.83333 2.35835 5.83333H5.83335V3.39999C5.83335 3.21111 5.90002 3.04999 6.03335 2.91666C6.1778 2.77777 6.34169 2.70833 6.52502 2.70833H17.6417ZM5.83335 10.8833L6.81669 12.7333H8.30835L6.66669 10.05L8.27502 7.40833H6.85002L5.94169 9.08333L5.90835 9.13333L5.88335 9.19166C5.73891 8.89722 5.58335 8.59999 5.41669 8.29999C5.2778 8.00555 5.13058 7.70833 4.97502 7.40833H3.46669L5.04169 10.0667L3.33335 12.7333H4.81669L5.83335 10.8833ZM11.5667 16.25V14.1667H6.87502V16.25H11.5667ZM11.5667 13.125V10.525H10V13.125H11.5667ZM11.5667 9.48333V6.87499H10V9.48333H11.5667ZM11.5667 5.83333V3.74999H6.87502V5.83333H11.5667ZM17.2917 16.25V14.1667H12.6084V16.25H17.2917ZM17.2917 13.125V10.525H12.6084V13.125H17.2917ZM17.2917 9.48333V6.87499H12.6084V9.48333H17.2917ZM17.2917 5.83333V3.74999H12.6084V5.83333H17.2917Z" />
</svg>