<svg viewBox="0 0 40 40" fill="none" xmlns="http://www.w3.org/2000/svg">
<rect width="40" height="40" rx="8" fill="#216F44"/>
<path d="M25.641 12.709C25.8243 12.709 25.9882 12.7784 26.1327 12.9173C26.266 13.0507 26.3327 13.2118 26.3327 13.4007V26.6006C26.3327 26.7895 26.266 26.9506 26.1327 27.084C25.9882 27.2229 25.8243 27.2923 25.641 27.2923H14.5243C14.341 27.2923 14.1771 27.2229 14.0327 27.084C13.8993 26.9506 13.8327 26.7895 13.8327 26.6006V24.1673H10.3577C10.1743 24.1673 10.0105 24.1007 9.86602 23.9673C9.73268 23.8229 9.66602 23.659 9.66602 23.4757V16.5257C9.66602 16.3423 9.73268 16.1784 9.86602 16.034C10.0105 15.9007 10.1743 15.834 10.3577 15.834H13.8327V13.4007C13.8327 13.2118 13.8993 13.0507 14.0327 12.9173C14.1771 12.7784 14.341 12.709 14.5243 12.709H25.641ZM13.8327 20.884L14.816 22.734H16.3077L14.666 20.0507L16.2743 17.409H14.8493L13.941 19.084L13.9077 19.134L13.8827 19.1923C13.7382 18.8979 13.5827 18.6007 13.416 18.3007C13.2771 18.0062 13.1299 17.709 12.9743 17.409H11.466L13.041 20.0673L11.3327 22.734H12.816L13.8327 20.884ZM19.566 26.2506V24.1673H14.8743V26.2506H19.566ZM19.566 23.1257V20.5257H17.9993V23.1257H19.566ZM19.566 19.484V16.8757H17.9993V19.484H19.566ZM19.566 15.834V13.7507H14.8743V15.834H19.566ZM25.291 26.2506V24.1673H20.6077V26.2506H25.291ZM25.291 23.1257V20.5257H20.6077V23.1257H25.291ZM25.291 19.484V16.8757H20.6077V19.484H25.291ZM25.291 15.834V13.7507H20.6077V15.834H25.291Z" fill="white"/>
</svg>
