<?xml version="1.0" encoding="utf-8"?>
<!-- Generator: Adobe Illustrator 26.5.0, SVG Export Plug-In . SVG Version: 6.00 Build 0)  -->
<svg version="1.1" id="Слой_1" xmlns="http://www.w3.org/2000/svg" xmlns:xlink="http://www.w3.org/1999/xlink" x="0px" y="0px"
	 viewBox="0 0 30 30" style="enable-background:new 0 0 30 30;" xml:space="preserve">
<style type="text/css">
	.st0{display:none;}
</style>
<path d="M28,9.2H2c-1.1,0-2,0.9-2,2v8c0,1.1,0.9,2,2,2h26c1.1,0,2-0.9,2-2v-8C30,10.1,29.1,9.2,28,9.2z M29,19.2c0,0.5-0.5,1-1,1H2
	c-0.5,0-1-0.5-1-1v-8c0-0.6,0.5-1,1-1h26c0.5,0,1,0.4,1,1V19.2z"/>
<path d="M3,11.2h24c0.5,0,1,0.4,1,1v6c0,0.5-0.5,1-1,1H3c-0.5,0-1-0.5-1-1v-6C2,11.6,2.4,11.2,3,11.2z"/>
<g>
	<path d="M15,0c-0.5,0-1,0.5-1,1v3.3c0,0.6,0.5,1,1,1s1-0.4,1-1V1C16,0.5,15.5,0,15,0z"/>
	<path d="M8.6,3.2c-0.4-0.4-1-0.4-1.4,0c-0.4,0.4-0.4,1,0,1.4l2.2,2.2c0.4,0.4,1,0.4,1.4,0c0.4-0.4,0.4-1,0-1.4L8.6,3.2z"/>
	<path d="M22.8,3.2c-0.4-0.4-1-0.4-1.4,0l-2.2,2.2c-0.4,0.4-0.4,1,0,1.4c0.4,0.4,1,0.4,1.4,0l2.2-2.2C23.2,4.2,23.2,3.6,22.8,3.2z"
		/>
</g>
<g>
	<path d="M15,30c0.5,0,1-0.5,1-1v-3.3c0-0.6-0.5-1-1-1s-1,0.4-1,1V29C14,29.5,14.4,30,15,30z"/>
	<path d="M21.4,26.8c0.4,0.4,1,0.4,1.4,0c0.4-0.4,0.4-1,0-1.4l-2.2-2.2c-0.4-0.4-1-0.4-1.4,0c-0.4,0.4-0.4,1,0,1.4L21.4,26.8z"/>
	<path d="M7.2,26.8c0.4,0.4,1,0.4,1.4,0l2.2-2.2c0.4-0.4,0.4-1,0-1.4c-0.4-0.4-1-0.4-1.4,0l-2.2,2.2C6.8,25.8,6.8,26.4,7.2,26.8z"/>
</g>
<path class="st0" d="M15,30c-0.6,0-1-0.5-1-1v-1c0-0.5,0.4-1,1-1l0,0c0.6,0,1,0.5,1,1v1C16,29.5,15.6,30,15,30L15,30z M22.8,26.8
	c-0.4,0.4-1,0.4-1.4,0l-0.7-0.7c-0.4-0.4-0.4-1,0-1.4l0,0c0.4-0.4,1-0.4,1.4,0l0.7,0.7C23.2,25.8,23.2,26.4,22.8,26.8L22.8,26.8z
	 M9.3,24.7c0.4,0.4,0.4,1,0,1.4l-0.7,0.7c-0.4,0.4-1,0.4-1.4,0l0,0c-0.4-0.4-0.4-1,0-1.4l0.7-0.7C8.3,24.3,8.9,24.3,9.3,24.7
	L9.3,24.7z"/>
</svg>
