<svg viewBox="0 0 20 20" fill="none" xmlns="http://www.w3.org/2000/svg">
	<path d="M13.8779 9.53125H9.8684C9.68118 9.53125 9.52941 9.68302 9.52941 9.87023V13.8798C9.52941 14.067 9.68118 14.2188 9.8684 14.2188H13.8779C14.0651 14.2188 14.2169 14.067 14.2169 13.8798V9.87023C14.2169 9.68302 14.0651 9.53125 13.8779 9.53125Z" />
	<path d="M8.25293 11.4062H6.1184C5.93118 11.4062 5.77941 11.558 5.77941 11.7452V13.8798C5.77941 14.067 5.93118 14.2188 6.1184 14.2188H8.25293C8.44014 14.2188 8.59191 14.067 8.59191 13.8798V11.7452C8.59191 11.558 8.44014 11.4062 8.25293 11.4062Z" />
	<path d="M13.8816 2.9375H10.8096C10.6224 2.9375 10.4706 3.08927 10.4706 3.27648V5.44227C10.4706 5.62948 10.6224 5.78125 10.8096 5.78125H13.8816C14.0688 5.78125 14.2206 5.62948 14.2206 5.44227V3.27648C14.2206 3.08927 14.0688 2.9375 13.8816 2.9375Z" />
	<path d="M9.19043 2H6.1184C5.93118 2 5.77941 2.15177 5.77941 2.33898V5.44227C5.77941 5.62948 5.93118 5.78125 6.1184 5.78125H9.19043C9.37764 5.78125 9.52941 5.62948 9.52941 5.44227V2.33898C9.52941 2.15177 9.37764 2 9.19043 2Z" />
	<path d="M16.464 2C16.2768 2 16.125 2.15177 16.125 2.33898V6.37977C16.125 6.56698 15.9732 6.71875 15.786 6.71875H4.21398C4.02677 6.71875 3.875 6.56706 3.875 6.37984C3.875 5.11467 3.875 3.77316 3.875 2.33903C3.875 2.15181 3.72323 2 3.53602 2H2.33898C2.15177 2 2 2.15177 2 2.33898V17.661C2 17.8482 2.15177 18 2.33898 18H3.53602C3.72323 18 3.875 17.8482 3.875 17.661C3.875 17.574 3.875 17.4877 3.875 17.4015C3.875 17.2143 4.02677 17.0625 4.21398 17.0625H15.786C15.9732 17.0625 16.125 17.2142 16.125 17.4014C16.125 17.4828 16.125 17.5692 16.125 17.661C16.125 17.8482 16.2768 18 16.464 18H17.661C17.8482 18 18 17.8482 18 17.661V2.33898C18 2.15177 17.8482 2 17.661 2H16.464ZM3.875 8.93279C3.875 8.74558 4.02677 8.59375 4.21398 8.59375H15.786C15.9732 8.59375 16.125 8.7459 16.125 8.93312C16.125 11.7266 16.125 13.5925 16.125 14.8177C16.125 15.005 15.9732 15.1563 15.786 15.1563H4.21398C4.02677 15.1563 3.875 15.0044 3.875 14.8172C3.875 12.8011 3.875 10.9016 3.875 8.93279Z" />
</svg>