<svg viewBox="0 0 30 30" fill="none" xmlns="http://www.w3.org/2000/svg">
<rect width="30" height="30" rx="8" fill="#F6F7F6"/>
<path d="M17.6667 18.334V16.334H13V13.6673H17.6667V11.6673L21 15.0007L17.6667 18.334ZM16.3333 8.33398C16.687 8.33398 17.0261 8.47446 17.2761 8.72451C17.5262 8.97456 17.6667 9.3137 17.6667 9.66732V11.0007H16.3333V9.66732H10.3333V20.334H16.3333V19.0007H17.6667V20.334C17.6667 20.6876 17.5262 21.0267 17.2761 21.2768C17.0261 21.5268 16.687 21.6673 16.3333 21.6673H10.3333C9.97971 21.6673 9.64057 21.5268 9.39052 21.2768C9.14048 21.0267 9 20.6876 9 20.334V9.66732C9 9.3137 9.14048 8.97456 9.39052 8.72451C9.64057 8.47446 9.97971 8.33398 10.3333 8.33398H16.3333Z" fill="#0E2B63"/>
</svg>
