<svg width="18" height="18" viewBox="0 0 18 18" fill="none" xmlns="http://www.w3.org/2000/svg">
	<g clip-path="url(#clip0_1404_4516)">
		<path d="M8.99991 18C7.75492 18 6.58494 17.7632 5.48995 17.2895C4.39496 16.8158 3.44247 16.1729 2.63247 15.3609C1.82248 14.5489 1.18124 13.594 0.708743 12.4962C0.236248 11.3985 0 10.2256 0 8.97744C0 6.64662 0.772492 4.62406 2.31748 2.90977C3.86246 1.19549 5.78994 0.225564 8.09992 0V2.70677C6.53994 2.91729 5.24995 3.61654 4.22996 4.80451C3.20997 5.99248 2.69997 7.38346 2.69997 8.97744C2.69997 10.7368 3.31122 12.2293 4.53371 13.4549C5.75619 14.6805 7.24493 15.2932 8.99991 15.2932C9.9599 15.2932 10.8711 15.0902 11.7336 14.6842C12.5961 14.2782 13.3349 13.6992 13.9499 12.9474L16.2898 14.3008C15.4348 15.4737 14.3699 16.3835 13.0949 17.0301C11.8199 17.6767 10.4549 18 8.99991 18Z" fill="#6475A4" />
		<path d="M14.895 11.2782L17.235 12.6316C17.52 12.0602 17.7188 11.4662 17.8313 10.8496C17.9438 10.2331 18 9.60902 18 8.97744C18 6.64662 17.2275 4.62406 15.6825 2.90977C14.1375 1.19549 12.2101 0.225564 9.90009 0V2.70677C11.4601 2.91729 12.7501 3.61654 13.77 4.80451C14.79 5.99248 15.3 7.38346 15.3 8.97744C15.3 9.36842 15.2663 9.75564 15.1988 10.1391C15.1313 10.5226 15.03 10.9023 14.895 11.2782Z" fill="#000055" />
	</g>
	<defs>
		<clipPath id="clip0_1404_4516">
			<rect width="18" height="18" fill="white" />
		</clipPath>
	</defs>
</svg>