<svg viewBox="0 0 20 20" fill="none" xmlns="http://www.w3.org/2000/svg">
	<path fill-rule="evenodd" clip-rule="evenodd" d="M1.57318 1.03135L1.45468 1.1854L0.0160643 3.10356C0.00563685 3.11746 0 3.13437 0 3.15175V10.9598V18.8313C0 18.8757 0.0359611 18.9116 0.0803213 18.9116H9.95984H10.0402H19.9197C19.964 18.9116 20 18.8757 20 18.8313V11.0232C20 11.0059 19.9944 10.9889 19.9839 10.975L18.5453 9.05689L18.4268 8.90283C18.4116 8.88307 18.3881 8.87149 18.3632 8.87149H10.1222C10.0769 8.87149 10.0402 8.83474 10.0402 8.78942V3.15175C10.0402 3.13437 10.0345 3.11746 10.0241 3.10356L8.58548 1.1854L8.46698 1.03135C8.45177 1.01158 8.42825 1 8.40331 1H1.63685C1.61191 1 1.58839 1.01158 1.57318 1.03135ZM4.48339 1.91274H2.09383C2.06855 1.91274 2.04474 1.92465 2.02957 1.94487L1.4655 2.69697C1.42579 2.74992 1.46357 2.82548 1.52976 2.82548H4.48339C4.52775 2.82548 4.56371 2.78952 4.56371 2.74516V1.99306C4.56371 1.9487 4.52775 1.91274 4.48339 1.91274ZM7.94633 1.91274H5.55677C5.51241 1.91274 5.47645 1.9487 5.47645 1.99306V2.74516C5.47645 2.78952 5.51241 2.82548 5.55677 2.82548H8.51041C8.57659 2.82548 8.61438 2.74992 8.57466 2.69697L8.01059 1.94487C7.99542 1.92465 7.97161 1.91274 7.94633 1.91274ZM9.0471 3.73823H0.993063C0.948703 3.73823 0.912742 3.77419 0.912742 3.81855V10.0471C0.912742 10.0915 0.948703 10.1274 0.993063 10.1274H9.0471C9.09146 10.1274 9.12742 10.0915 9.12742 10.0471V3.81855C9.12742 3.77419 9.09146 3.73823 9.0471 3.73823ZM13.8147 9.78423H11.0025C10.9428 9.78423 10.904 9.84706 10.9307 9.90047L11.3068 10.6526C11.3204 10.6798 11.3482 10.697 11.3786 10.697H14.3652C14.431 10.697 14.4689 10.6223 14.43 10.5692L13.8795 9.81711C13.8644 9.79644 13.8403 9.78423 13.8147 9.78423ZM17.9062 9.78423H14.9359C14.8705 9.78423 14.8325 9.85835 14.8707 9.91148L15.4123 10.6636C15.4273 10.6845 15.4516 10.697 15.4774 10.697H18.4702C18.5364 10.697 18.5742 10.6214 18.5345 10.5685L17.9704 9.81636C17.9553 9.79613 17.9315 9.78423 17.9062 9.78423ZM19.0069 11.6097H10.9529C10.9085 11.6097 10.8726 11.6457 10.8726 11.69V17.9186C10.8726 17.9629 10.9085 17.9989 10.9529 17.9989H19.0069C19.0513 17.9989 19.0873 17.9629 19.0873 17.9186V11.69C19.0873 11.6457 19.0513 11.6097 19.0069 11.6097ZM9.0471 11.5018H0.993063C0.948703 11.5018 0.912742 11.5378 0.912742 11.5821V17.9051C0.912742 17.9495 0.948703 17.9854 0.993063 17.9854H9.0471C9.09146 17.9854 9.12742 17.9495 9.12742 17.9051V11.5821C9.12742 11.5378 9.09146 11.5018 9.0471 11.5018Z" fill="red" />
	<path d="M3.5654 4.65097C3.31403 4.67415 3.12865 4.89878 3.15179 5.15015C3.17497 5.40147 3.3996 5.58689 3.65097 5.56371H6.38919C6.55321 5.56549 6.70651 5.47992 6.7903 5.3373C6.87231 5.19469 6.87231 5.01999 6.7903 4.87737C6.70651 4.73476 6.55321 4.64919 6.38919 4.65097H3.65097H3.60816H3.5654Z" />
	<path d="M3.5654 12.4281C3.31403 12.4516 3.12865 12.6795 3.15179 12.9346C3.17497 13.1896 3.3996 13.3778 3.65097 13.3543H6.38919C6.55321 13.3561 6.70651 13.2693 6.7903 13.1245C6.87231 12.9798 6.87231 12.8025 6.7903 12.6578C6.70651 12.5131 6.55321 12.4262 6.38919 12.4281H3.65097H3.60816H3.5654Z" />
	<path d="M13.5252 12.5225C13.2739 12.5456 13.0885 12.7703 13.1116 13.0216C13.1348 13.273 13.3594 13.4584 13.6108 13.4352H16.349C16.5131 13.437 16.6663 13.3514 16.7501 13.2088C16.8321 13.0662 16.8321 12.8915 16.7501 12.7489C16.6663 12.6062 16.5131 12.5207 16.349 12.5225H13.6108H13.568H13.5252Z" />
</svg>