<svg viewBox="0 0 20 20" fill="none" xmlns="http://www.w3.org/2000/svg">
	<path d="M17.8932 3.75279C17.6101 3.48313 17.2642 3.33331 16.8554 3.33331H13.1447H3.14474C2.73593 3.33331 2.39002 3.48313 2.107 3.75279C1.82398 4.05241 1.66675 4.382 1.66675 4.77152V14C1.66675 14.3895 1.82398 14.7191 2.107 14.9887C2.39002 15.2584 2.73593 15.4082 3.14474 15.4082H3.67933V16.0374C3.67933 16.397 3.99379 16.6666 4.3397 16.6666C4.68562 16.6666 5.00008 16.367 5.00008 16.0374V15.4082H15.0001V16.0374C15.0001 16.397 15.3145 16.6666 15.6605 16.6666C16.0064 16.6666 16.3208 16.367 16.3208 16.0374V15.4082H16.8554C17.2642 15.4082 17.6101 15.2584 17.8932 14.9887C18.1762 14.7191 18.3334 14.3895 18.3334 14V4.77152C18.3334 4.382 18.1762 4.05241 17.8932 3.75279ZM13.1447 5.70035C13.1447 6.74904 12.2642 7.61796 11.1322 7.61796H3.14474V4.77152H13.1447V5.70035Z" />
</svg>