<svg viewBox="0 0 20 20" fill="none" xmlns="http://www.w3.org/2000/svg">
	<path fill-rule="evenodd" clip-rule="evenodd" d="M2.97651 1.75C2.98476 1.75 2.99302 1.75 3.00131 1.75L17.0261 1.75C17.238 1.74998 17.4397 1.74996 17.6097 1.76385C17.7951 1.77899 18.0076 1.81431 18.2201 1.92258C18.518 2.07438 18.7603 2.31659 18.9121 2.61452C19.0203 2.827 19.0557 3.03959 19.0708 3.22493C19.0847 3.3949 19.0847 3.5966 19.0846 3.80853V5.35815C19.0847 5.57008 19.0847 5.77178 19.0708 5.94174C19.0557 6.12708 19.0203 6.33967 18.9121 6.55216C18.7603 6.85008 18.518 7.0923 18.2201 7.2441C18.0896 7.31063 17.9589 7.34961 17.8346 7.37329V13.5314C17.8347 14.2048 17.8347 14.7555 17.7981 15.2031C17.7602 15.6663 17.6795 16.0847 17.4804 16.4755C17.1688 17.087 16.6716 17.5842 16.0601 17.8958C15.6694 18.0949 15.251 18.1756 14.7877 18.2135C14.3401 18.25 13.7894 18.25 13.116 18.25H6.88658C6.21319 18.25 5.66247 18.25 5.2149 18.2135C4.75164 18.1756 4.33324 18.0949 3.9425 17.8958C3.33098 17.5842 2.83379 17.087 2.5222 16.4755C2.32311 16.0847 2.24237 15.6663 2.20452 15.2031C2.16796 14.7555 2.16796 14.2048 2.16797 13.5314L2.16797 7.37329C2.04367 7.34961 1.91306 7.31063 1.78249 7.2441C1.48456 7.0923 1.24234 6.85008 1.09055 6.55216C0.982281 6.33967 0.946959 6.12708 0.931816 5.94174C0.917929 5.77177 0.917949 5.57007 0.91797 5.35814C0.917971 5.34988 0.917972 5.34162 0.917972 5.33334V3.83334C0.917972 3.82506 0.917971 3.81679 0.91797 3.80854C0.917949 3.5966 0.917929 3.3949 0.931816 3.22493C0.946959 3.03959 0.982281 2.827 1.09055 2.61452C1.24234 2.3166 1.48456 2.07438 1.78249 1.92258C1.99497 1.81431 2.20756 1.77899 2.3929 1.76385C2.56287 1.74996 2.76457 1.74998 2.97651 1.75ZM3.66797 7.41667V13.5C3.66797 14.2124 3.66856 14.7017 3.69954 15.0809C3.72981 15.4514 3.78532 15.6504 3.85871 15.7945C4.02649 16.1238 4.2942 16.3915 4.62349 16.5593C4.76753 16.6327 4.96655 16.6882 5.33705 16.7184C5.71631 16.7494 6.20553 16.75 6.91797 16.75H13.0846C13.7971 16.75 14.2863 16.7494 14.6656 16.7184C15.0361 16.6882 15.2351 16.6327 15.3791 16.5593C15.7084 16.3915 15.9761 16.1238 16.1439 15.7945C16.2173 15.6504 16.2728 15.4514 16.3031 15.0809C16.3341 14.7017 16.3346 14.2124 16.3346 13.5V7.41667H3.66797ZM2.4517 3.26637C2.44509 3.27127 2.43924 3.27712 2.43434 3.28374C2.43236 3.29497 2.42945 3.31509 2.42683 3.34708C2.41856 3.44841 2.41797 3.58761 2.41797 3.83334V5.33334C2.41797 5.57907 2.41856 5.71826 2.42683 5.81959C2.42945 5.85158 2.43236 5.87171 2.43434 5.88294C2.43924 5.88955 2.44509 5.8954 2.4517 5.9003C2.46294 5.90228 2.48306 5.90519 2.51505 5.90781C2.61638 5.91609 2.75557 5.91667 3.00131 5.91667H17.0013C17.247 5.91667 17.3862 5.91609 17.4876 5.90781C17.5196 5.90519 17.5397 5.90228 17.5509 5.9003C17.5575 5.8954 17.5634 5.88955 17.5683 5.88294C17.5702 5.87171 17.5732 5.85158 17.5758 5.81959C17.5841 5.71826 17.5846 5.57907 17.5846 5.33334V3.83334C17.5846 3.58761 17.5841 3.44841 17.5758 3.34708C17.5732 3.31509 17.5702 3.29497 17.5683 3.28374C17.5634 3.27712 17.5575 3.27127 17.5509 3.26637C17.5397 3.26439 17.5196 3.26148 17.4876 3.25887C17.3862 3.25059 17.247 3.25 17.0013 3.25H3.00131C2.75557 3.25 2.61638 3.25059 2.51505 3.25887C2.48306 3.26148 2.46294 3.26439 2.4517 3.26637ZM7.97651 8.83333H12.0261C12.238 8.83331 12.4397 8.83329 12.6097 8.84718C12.7951 8.86232 13.0076 8.89764 13.2201 9.00591C13.518 9.15771 13.7603 9.39993 13.9121 9.69785C14.0203 9.91033 14.0557 10.1229 14.0708 10.3083C14.0847 10.4782 14.0847 10.6799 14.0846 10.8919V11.6081C14.0847 11.8201 14.0847 12.0218 14.0708 12.1917C14.0557 12.3771 14.0203 12.5897 13.9121 12.8022C13.7603 13.1001 13.518 13.3423 13.2201 13.4941C13.0076 13.6024 12.7951 13.6377 12.6097 13.6528C12.4397 13.6667 12.238 13.6667 12.0261 13.6667H7.97649C7.76456 13.6667 7.56286 13.6667 7.3929 13.6528C7.20756 13.6377 6.99497 13.6024 6.78249 13.4941C6.48456 13.3423 6.24235 13.1001 6.09055 12.8022C5.98228 12.5897 5.94696 12.3771 5.93182 12.1917C5.91793 12.0218 5.91795 11.8201 5.91797 11.6081V10.8919C5.91795 10.6799 5.91793 10.4782 5.93182 10.3083C5.94696 10.1229 5.98228 9.91033 6.09055 9.69785C6.24235 9.39993 6.48456 9.15771 6.78249 9.00591C6.99497 8.89764 7.20756 8.86232 7.3929 8.84718C7.56287 8.83329 7.76457 8.83331 7.97651 8.83333ZM7.4517 10.3497C7.44509 10.3546 7.43924 10.3605 7.43434 10.3671C7.43236 10.3783 7.42945 10.3984 7.42684 10.4304C7.41856 10.5317 7.41797 10.6709 7.41797 10.9167V11.5833C7.41797 11.8291 7.41856 11.9683 7.42684 12.0696C7.42945 12.1016 7.43236 12.1217 7.43434 12.1329C7.43924 12.1396 7.44509 12.1454 7.45171 12.1503C7.46294 12.1523 7.48306 12.1552 7.51505 12.1578C7.61638 12.1661 7.75557 12.1667 8.00131 12.1667H12.0013C12.247 12.1667 12.3862 12.1661 12.4876 12.1578C12.5196 12.1552 12.5397 12.1523 12.5509 12.1503C12.5575 12.1454 12.5634 12.1395 12.5683 12.1329C12.5702 12.1217 12.5732 12.1016 12.5758 12.0696C12.5841 11.9683 12.5846 11.8291 12.5846 11.5833V10.9167C12.5846 10.6709 12.5841 10.5317 12.5758 10.4304C12.5732 10.3984 12.5702 10.3783 12.5683 10.3671C12.5634 10.3605 12.5575 10.3546 12.5509 10.3497C12.5397 10.3477 12.5195 10.3448 12.4876 10.3422C12.3862 10.3339 12.247 10.3333 12.0013 10.3333H8.00131C7.75557 10.3333 7.61638 10.3339 7.51505 10.3422C7.48306 10.3448 7.46294 10.3477 7.4517 10.3497Z" />
</svg>