<svg viewBox="0 0 20 20" fill="none" xmlns="http://www.w3.org/2000/svg">
	<path fill-rule="evenodd" clip-rule="evenodd" d="M13.6363 1.13642C13.9292 0.843525 14.4041 0.843525 14.697 1.13642L18.0303 4.46975C18.171 4.6104 18.25 4.80117 18.25 5.00008C18.25 5.19899 18.171 5.38976 18.0303 5.53041L14.697 8.86375C14.4041 9.15664 13.9292 9.15664 13.6363 8.86375C13.3434 8.57085 13.3434 8.09598 13.6363 7.80308L15.6893 5.75008H6.5C5.78756 5.75008 5.29833 5.75066 4.91908 5.78165C4.54858 5.81192 4.34956 5.86743 4.20552 5.94082C3.87623 6.1086 3.60852 6.37631 3.44074 6.7056C3.36735 6.84964 3.31184 7.04866 3.28157 7.41916C3.25058 7.79842 3.25 8.28764 3.25 9.00008V9.16675C3.25 9.58096 2.91421 9.91675 2.5 9.91675C2.08579 9.91675 1.75 9.58096 1.75 9.16675L1.75 8.96866C1.74999 8.29529 1.74998 7.74458 1.78655 7.29701C1.8244 6.83375 1.90514 6.41535 2.10423 6.02461C2.41582 5.41309 2.913 4.9159 3.52453 4.60431C3.91527 4.40522 4.33367 4.32448 4.79693 4.28663C5.2445 4.25007 5.79521 4.25007 6.46859 4.25008L15.6893 4.25008L13.6363 2.19708C13.3434 1.90418 13.3434 1.42931 13.6363 1.13642ZM16.75 11.0001V10.8334C16.75 10.4192 17.0858 10.0834 17.5 10.0834C17.9142 10.0834 18.25 10.4192 18.25 10.8334V11.0315C18.25 11.7049 18.25 12.2556 18.2134 12.7032C18.1756 13.1664 18.0949 13.5848 17.8958 13.9756C17.5842 14.5871 17.087 15.0843 16.4755 15.3959C16.0847 15.5949 15.6663 15.6757 15.2031 15.7135C14.7555 15.7501 14.2048 15.7501 13.5314 15.7501H4.31066L6.36366 17.8031C6.65656 18.096 6.65656 18.5709 6.36366 18.8637C6.07077 19.1566 5.5959 19.1566 5.303 18.8637L1.96967 15.5304C1.67678 15.2375 1.67678 14.7626 1.96967 14.4698L5.303 11.1364C5.5959 10.8435 6.07077 10.8435 6.36366 11.1364C6.65656 11.4293 6.65656 11.9042 6.36366 12.1971L4.31066 14.2501H13.5C14.2124 14.2501 14.7017 14.2495 15.0809 14.2185C15.4514 14.1882 15.6504 14.1327 15.7945 14.0593C16.1238 13.8916 16.3915 13.6238 16.5593 13.2946C16.6327 13.1505 16.6882 12.9515 16.7184 12.581C16.7494 12.2017 16.75 11.7125 16.75 11.0001Z" />
</svg>